<svg width="158" height="154" viewBox="0 0 158 154" fill="none" xmlns="http://www.w3.org/2000/svg">
<g clip-path="url(#clip0)">
<path d="M100.305 34.6335H57.7311C56.7609 34.6347 55.8308 35.0201 55.1447 35.7051C54.4587 36.3901 54.0728 37.3188 54.0716 38.2876V132.769L53.5837 132.918L43.1396 136.112C42.6446 136.262 42.11 136.211 41.653 135.968C41.1961 135.726 40.8542 135.312 40.7024 134.818L9.63594 33.491C9.48476 32.9968 9.53629 32.4628 9.7792 32.0065C10.0221 31.5501 10.4365 31.2088 10.9314 31.0574L27.0258 26.1366L73.6839 11.876L89.7782 6.95524C90.0231 6.87997 90.2805 6.85367 90.5356 6.87784C90.7907 6.90201 91.0386 6.97618 91.2649 7.0961C91.4913 7.21602 91.6918 7.37934 91.8549 7.57672C92.018 7.77409 92.1405 8.00164 92.2154 8.24634L100.156 34.1463L100.305 34.6335Z" fill="#F9FAFB"/>
<path d="M109.596 34.1469L100.025 2.93146C99.8656 2.41135 99.6053 1.92767 99.2588 1.50806C98.9123 1.08844 98.4864 0.741122 98.0054 0.485937C97.5244 0.230751 96.9978 0.0727022 96.4556 0.0208271C95.9134 -0.0310481 95.3663 0.0242672 94.8455 0.183606L72.2178 7.09952L25.5622 21.3625L2.93456 28.2809C1.88339 28.6032 1.00324 29.3288 0.487291 30.2984C-0.0286586 31.268 -0.138254 32.4024 0.182567 33.4526L32.8933 140.134C33.1539 140.982 33.6798 141.724 34.3937 142.251C35.1077 142.779 35.9721 143.064 36.8602 143.065C37.2713 143.065 37.68 143.003 38.0726 142.882L53.5839 138.141L54.0718 137.99V137.481L53.5839 137.63L37.9287 142.417C37.0009 142.699 35.9988 142.602 35.1421 142.148C34.2855 141.694 33.6444 140.919 33.3593 139.993L0.651078 33.3089C0.509845 32.8501 0.460621 32.3681 0.506225 31.8904C0.551828 31.4126 0.691358 30.9485 0.916834 30.5247C1.14231 30.1009 1.4493 29.7256 1.82023 29.4204C2.19115 29.1153 2.61872 28.8861 3.07845 28.7462L25.7061 21.8278L72.3619 7.56724L94.9895 0.648894C95.3382 0.542634 95.7008 0.488454 96.0653 0.488115C96.8478 0.489869 97.6091 0.741745 98.2378 1.20685C98.8664 1.67195 99.3295 2.32585 99.559 3.07275L109.086 34.1469L109.237 34.6341H109.744L109.596 34.1469Z" fill="#9CA3AF"/>
<path d="M29.9293 31.1378C29.4591 31.1374 29.0013 30.9866 28.6233 30.7075C28.2452 30.4284 27.9666 30.0356 27.8284 29.5868L24.6861 19.338C24.6016 19.0627 24.5723 18.7734 24.5999 18.4868C24.6274 18.2002 24.7112 17.9218 24.8464 17.6676C24.9817 17.4133 25.1658 17.1881 25.3883 17.0049C25.6107 16.8217 25.8671 16.684 26.1428 16.5998L69.0657 3.47837C69.6225 3.3087 70.224 3.36657 70.7381 3.63926C71.2522 3.91195 71.637 4.37718 71.808 4.93285L74.9503 15.1818C75.1202 15.7378 75.0621 16.3384 74.7891 16.8517C74.516 17.3651 74.0501 17.7493 73.4937 17.9201L30.5708 31.0415C30.3629 31.1052 30.1467 31.1377 29.9293 31.1378Z" fill="url(#paint0_linear)"/>
<path d="M46.391 10.9512C49.0857 10.9512 51.2703 8.76988 51.2703 6.07911C51.2703 3.38833 49.0857 1.20703 46.391 1.20703C43.6962 1.20703 41.5117 3.38833 41.5117 6.07911C41.5117 8.76988 43.6962 10.9512 46.391 10.9512Z" fill="url(#paint1_linear)"/>
<path d="M46.3905 9.16444C48.0969 9.16444 49.4802 7.78317 49.4802 6.07929C49.4802 4.37541 48.0969 2.99414 46.3905 2.99414C44.6841 2.99414 43.3008 4.37541 43.3008 6.07929C43.3008 7.78317 44.6841 9.16444 46.3905 9.16444Z" fill="white"/>
<path d="M147.022 141.82H64.562C64.0122 141.82 63.4851 141.601 63.0963 141.213C62.7076 140.825 62.4889 140.299 62.4883 139.75V41.0902C62.4889 40.5412 62.7076 40.0149 63.0963 39.6267C63.4851 39.2385 64.0122 39.0201 64.562 39.0195H147.022C147.572 39.0202 148.099 39.2385 148.487 39.6267C148.876 40.0149 149.095 40.5412 149.096 41.0902V139.75C149.095 140.299 148.876 140.825 148.487 141.213C148.099 141.601 147.572 141.82 147.022 141.82Z" fill="#E5E7EB"/>
<path d="M109.086 34.1465H57.7314C56.6319 34.148 55.5779 34.5848 54.8004 35.3612C54.023 36.1375 53.5855 37.1899 53.584 38.2878V137.629L54.0719 137.481V38.2878C54.0731 37.319 54.459 36.3903 55.145 35.7052C55.8311 35.0202 56.7612 34.6349 57.7314 34.6337H109.237L109.086 34.1465ZM153.853 34.1465H57.7314C56.6319 34.148 55.5779 34.5848 54.8004 35.3612C54.023 36.1375 53.5855 37.1899 53.584 38.2878V149.858C53.5855 150.956 54.023 152.009 54.8004 152.785C55.5779 153.561 56.6319 153.998 57.7314 154H153.853C154.953 153.998 156.007 153.561 156.784 152.785C157.562 152.009 157.999 150.956 158.001 149.858V38.2878C157.999 37.1899 157.562 36.1375 156.784 35.3612C156.007 34.5848 154.953 34.148 153.853 34.1465ZM157.513 149.858C157.512 150.827 157.126 151.756 156.44 152.441C155.754 153.126 154.823 153.511 153.853 153.512H57.7314C56.7612 153.511 55.8311 153.126 55.145 152.441C54.459 151.756 54.0731 150.827 54.0719 149.858V38.2878C54.0731 37.319 54.459 36.3903 55.145 35.7052C55.8311 35.0202 56.7612 34.6349 57.7314 34.6337H153.853C154.823 34.6349 155.754 35.0202 156.44 35.7052C157.126 36.3903 157.512 37.319 157.513 38.2878V149.858Z" fill="#9CA3AF"/>
<path d="M128.235 44.8652H83.3461C82.7639 44.8645 82.2058 44.6333 81.7942 44.2223C81.3826 43.8113 81.151 43.254 81.1504 42.6727V31.9542C81.151 31.3729 81.3826 30.8156 81.7942 30.4046C82.2058 29.9936 82.7639 29.7624 83.3461 29.7617H128.235C128.818 29.7624 129.376 29.9936 129.787 30.4046C130.199 30.8156 130.43 31.3729 130.431 31.9542V42.6727C130.43 43.254 130.199 43.8113 129.787 44.2223C129.376 44.6333 128.818 44.8645 128.235 44.8652Z" fill="url(#paint2_linear)"/>
<path d="M105.791 30.4922C108.486 30.4922 110.671 28.3109 110.671 25.6201C110.671 22.9294 108.486 20.748 105.791 20.748C103.097 20.748 100.912 22.9294 100.912 25.6201C100.912 28.3109 103.097 30.4922 105.791 30.4922Z" fill="url(#paint3_linear)"/>
<path d="M105.792 28.5894C107.434 28.5894 108.764 27.2608 108.764 25.6218C108.764 23.9829 107.434 22.6543 105.792 22.6543C104.151 22.6543 102.82 23.9829 102.82 25.6218C102.82 27.2608 104.151 28.5894 105.792 28.5894Z" fill="white"/>
</g>
<defs>
<linearGradient id="paint0_linear" x1="49.8179" y1="3.38281" x2="49.8179" y2="31.1378" gradientUnits="userSpaceOnUse">
<stop stop-color="#D70900"/>
<stop offset="1" stop-color="#BF0B1C"/>
</linearGradient>
<linearGradient id="paint1_linear" x1="46.391" y1="1.20703" x2="46.391" y2="10.9512" gradientUnits="userSpaceOnUse">
<stop stop-color="#D70900"/>
<stop offset="1" stop-color="#BF0B1C"/>
</linearGradient>
<linearGradient id="paint2_linear" x1="105.791" y1="29.7617" x2="105.791" y2="44.8652" gradientUnits="userSpaceOnUse">
<stop stop-color="#D70900"/>
<stop offset="1" stop-color="#BF0B1C"/>
</linearGradient>
<linearGradient id="paint3_linear" x1="105.791" y1="20.748" x2="105.791" y2="30.4922" gradientUnits="userSpaceOnUse">
<stop stop-color="#D70900"/>
<stop offset="1" stop-color="#BF0B1C"/>
</linearGradient>
<clipPath id="clip0">
<rect width="158" height="154" fill="white"/>
</clipPath>
</defs>
</svg>
