<svg width="14" height="14" viewBox="0 0 14 14" fill="none" xmlns="http://www.w3.org/2000/svg">
<path d="M13.0002 0.333374H9.00016C8.60016 0.333374 8.3335 0.600041 8.3335 1.00004C8.3335 1.40004 8.60016 1.66671 9.00016 1.66671H11.4002L3.20016 9.86671C2.9335 10.1334 2.9335 10.5334 3.20016 10.8C3.46683 11.0667 3.86683 11.0667 4.1335 10.8L12.3335 2.60004V5.00004C12.3335 5.40004 12.6002 5.66671 13.0002 5.66671C13.4002 5.66671 13.6668 5.40004 13.6668 5.00004V1.00004C13.6668 0.600041 13.4002 0.333374 13.0002 0.333374ZM11.0002 6.86671C10.6002 6.86671 10.3335 7.13337 10.3335 7.53337V12.3334H1.66683V3.66671H6.46683C6.86683 3.66671 7.1335 3.40004 7.1335 3.00004C7.1335 2.60004 6.86683 2.33337 6.46683 2.33337H1.00016C0.600163 2.33337 0.333496 2.60004 0.333496 3.00004V13C0.333496 13.4 0.600163 13.6667 1.00016 13.6667H11.0002C11.4002 13.6667 11.6668 13.4 11.6668 13V7.53337C11.6668 7.20004 11.4002 6.86671 11.0002 6.86671Z" fill="#6D7175"/>
</svg>
