<svg id="SvgjsSvg1001" width="288" height="288" xmlns="http://www.w3.org/2000/svg" version="1.1" xmlns:xlink="http://www.w3.org/1999/xlink" xmlns:svgjs="http://svgjs.com/svgjs"><defs id="SvgjsDefs1002"></defs><g id="SvgjsG1008" transform="matrix(1,0,0,1,0,0)"><svg xmlns="http://www.w3.org/2000/svg" width="288" height="288" fill="none" viewBox="0 0 36 33"><path fill="#ffffff" d="M34.424 19.832L27.944 23.208V22.116L34.972 18.46C35.26 18.308 35.376 17.952 35.224 17.66 35.076 17.372 34.716 17.256 34.424 17.412L27.944 20.788V19.62L34.972 15.96C35.26 15.808 35.376 15.452 35.224 15.16 35.076 14.876 34.716 14.76 34.424 14.912L27.944 18.284V17.184L34.852 13.592C35.052 13.488 35.172 13.284 35.168 13.06 35.168 12.836 35.044 12.636 34.84 12.536L24.08 7.21602C23.916 7.13202 23.72 7.13202 23.556 7.21602L.383976 18.54C.179976 18.64.0519758 18.848.0519758 19.076.0519758 19.304.179976 19.508.383976 19.608L11.972 25.236C12.052 25.276 12.14 25.296 12.228 25.296 12.32 25.296 12.416 25.272 12.5 25.228L19.976 21.332V22.432L12.216 26.472.895976 20.976C.607976 20.836.251976 20.956.111976 21.252-.0280242 21.548.0879758 21.9.383976 22.04L11.972 27.668C12.052 27.708 12.14 27.728 12.228 27.728 12.32 27.728 12.416 27.704 12.5 27.66L19.976 23.764V24.928L12.216 28.968.895976 23.472C.607976 23.328.251976 23.452.111976 23.752-.0320242 24.04.0879758 24.4.383976 24.54L11.972 30.164C12.052 30.204 12.14 30.228 12.228 30.228 12.32 30.228 12.416 30.204 12.5 30.156L19.976 26.264V27.348L12.216 31.388.895976 25.896C.607976 25.752.251976 25.876.111976 26.172-.0320242 26.464.0879758 26.82.383976 26.96L11.972 32.584C12.052 32.628 12.14 32.648 12.228 32.648 12.32 32.648 12.416 32.624 12.5 32.576L20.844 28.24 34.972 20.884C35.26 20.736 35.376 20.376 35.224 20.088 35.076 19.796 34.716 19.68 34.424 19.832zM20.564 19.696L10.676 14.828 16.288 12.084 26.004 16.864 20.564 19.696zM23.812 8.40802L33.268 13.08 27.304 16.184 17.636 11.424 23.812 8.40802zM12.22 24.04L1.99598 19.072 9.33198 15.488 19.256 20.372 12.22 24.04zM22.636 19.948C22.64 19.944 22.648 19.944 22.652 19.94L26.76 17.804V23.82L21.164 26.736V20.72L22.636 19.948zM10.64 8.70802C15.416 8.70802 19.024 7.00402 19.024 4.74802 19.024 2.49202 15.42.788025 10.64.788025 5.85995.788025 2.25195 2.49202 2.25195 4.74802 2.25195 7.00402 5.85995 8.70802 10.64 8.70802zM10.64 1.97202C14.884 1.97202 17.84 3.43602 17.84 4.74802 17.84 6.06002 14.884 7.52402 10.64 7.52402 6.39595 7.52402 3.43995 6.06002 3.43995 4.74802 3.43995 3.43602 6.39595 1.97202 10.64 1.97202z" class="color000 svgShape"></path><path fill="#ffffff" d="M18.88 8.19597C19.016 7.89597 18.88 7.54397 18.584 7.41197C18.284 7.27997 17.936 7.41197 17.8 7.71197C17.392 8.61597 14.54 9.59597 10.64 9.59597C6.73998 9.59597 3.88798 8.61597 3.47598 7.70797C3.33998 7.41197 2.99198 7.27597 2.69198 7.41197C2.39598 7.54797 2.25998 7.89997 2.39598 8.19597C3.19998 9.97197 7.23198 10.784 10.64 10.784C14.048 10.784 18.084 9.97197 18.88 8.19597Z" class="color000 svgShape"></path><path fill="#ffffff" d="M11.232 12.428C11.232 12.1 10.968 11.836 10.644 11.836 6.74398 11.836 3.89198 10.856 3.47998 9.94404 3.33998 9.65204 2.99198 9.51604 2.69198 9.65204 2.39598 9.78804 2.25998 10.136 2.39598 10.436 3.19998 12.212 7.23198 13.024 10.64 13.024 10.968 13.024 11.232 12.756 11.232 12.428zM6.95597 14.696C7.24397 14.696 7.49597 14.488 7.53997 14.192 7.59197 13.872 7.36797 13.568 7.04397 13.52 4.55997 13.148 3.60797 12.516 3.45597 12.24 3.29597 11.952 2.93997 11.848 2.65197 12.004 2.36397 12.16 2.25997 12.52 2.41597 12.808 3.01597 13.9 5.16797 14.436 6.86797 14.692 6.89997 14.696 6.92797 14.696 6.95597 14.696zM3.42399 14.376C3.23599 14.108 2.86799 14.04 2.59999 14.228 2.33199 14.416 2.26399 14.78 2.44799 15.052 2.77599 15.524 3.53199 15.9 4.75999 16.196 4.80799 16.208 4.85199 16.212 4.89999 16.212 5.16799 16.212 5.40799 16.032 5.47599 15.76 5.55199 15.44 5.35599 15.12 5.03999 15.044 3.66799 14.712 3.43199 14.392 3.42399 14.376zM18.7319 16.7506C20.0929 16.1861 21.0207 15.305 20.804 14.7826 20.5873 14.2602 19.3083 14.2944 17.9473 14.8589 16.5862 15.4234 15.6585 16.3045 15.8751 16.8269 16.0918 17.3492 17.3708 17.3151 18.7319 16.7506z" class="color000 svgShape"></path></svg></g></svg>