<svg width="36" height="36" viewBox="0 0 36 36" fill="none" xmlns="http://www.w3.org/2000/svg">
<g clip-path="url(#clip0)">
<path d="M34.4241 22.8321L27.9441 26.2081V25.1161L34.9721 21.4601C35.2601 21.3081 35.3761 20.9521 35.2241 20.6601C35.0761 20.3721 34.7161 20.2561 34.4241 20.4121L27.9441 23.7881V22.6201L34.9721 18.9601C35.2601 18.8081 35.3761 18.4521 35.2241 18.1601C35.0761 17.8761 34.7161 17.7601 34.4241 17.9121L27.9441 21.2841V20.1841L34.8521 16.5921C35.0521 16.4881 35.1721 16.2841 35.1681 16.0601C35.1681 15.8361 35.0441 15.6361 34.8401 15.5361L24.0801 10.2161C23.9161 10.1321 23.7201 10.1321 23.5561 10.2161L0.384098 21.5401C0.180098 21.6401 0.0520978 21.8481 0.0520978 22.0761C0.0520978 22.3041 0.180098 22.5081 0.384098 22.6081L11.9721 28.2361C12.0521 28.2761 12.1401 28.2961 12.2281 28.2961C12.3201 28.2961 12.4161 28.2721 12.5001 28.2281L19.9761 24.3321V25.4321L12.2161 29.4721L0.896098 23.9761C0.608098 23.8361 0.252098 23.9561 0.112098 24.2521C-0.0279022 24.5481 0.0880978 24.9001 0.384098 25.0401L11.9721 30.6681C12.0521 30.7081 12.1401 30.7281 12.2281 30.7281C12.3201 30.7281 12.4161 30.7041 12.5001 30.6601L19.9761 26.7641V27.9281L12.2161 31.9681L0.896098 26.4721C0.608098 26.3281 0.252098 26.4521 0.112098 26.7521C-0.0319022 27.0401 0.0880978 27.4001 0.384098 27.5401L11.9721 33.1641C12.0521 33.2041 12.1401 33.2281 12.2281 33.2281C12.3201 33.2281 12.4161 33.2041 12.5001 33.1561L19.9761 29.2641V30.3481L12.2161 34.3881L0.896098 28.8961C0.608098 28.7521 0.252098 28.8761 0.112098 29.1721C-0.0319022 29.4641 0.0880978 29.8201 0.384098 29.9601L11.9721 35.5841C12.0521 35.6281 12.1401 35.6481 12.2281 35.6481C12.3201 35.6481 12.4161 35.6241 12.5001 35.5761L20.8441 31.2401L34.9721 23.8841C35.2601 23.7361 35.3761 23.3761 35.2241 23.0881C35.0761 22.7961 34.7161 22.6801 34.4241 22.8321ZM20.5641 22.6961L10.6761 17.8281L16.2881 15.0841L26.0041 19.8641L20.5641 22.6961ZM23.8121 11.4081L33.2681 16.0801L27.3041 19.1841L17.6361 14.4241L23.8121 11.4081ZM12.2201 27.0401L1.9961 22.0721L9.3321 18.4881L19.2561 23.3721L12.2201 27.0401ZM22.6361 22.9481C22.6401 22.9441 22.6481 22.9441 22.6521 22.9401L26.7601 20.8041V26.8201L21.1641 29.7361V23.7201L22.6361 22.9481Z" fill="white" stroke="white" stroke-width="0.4"/>
<path d="M10.64 9.70808C15.416 9.70808 19.024 8.00408 19.024 5.74808C19.024 3.49208 15.42 1.78809 10.64 1.78809C5.85995 1.78809 2.25195 3.49208 2.25195 5.74808C2.25195 8.00408 5.85995 9.70808 10.64 9.70808ZM10.64 2.97208C14.884 2.97208 17.84 4.43608 17.84 5.74808C17.84 7.06008 14.884 8.52408 10.64 8.52408C6.39595 8.52408 3.43995 7.06008 3.43995 5.74808C3.43995 4.43608 6.39595 2.97208 10.64 2.97208Z" fill="white" stroke="white" stroke-width="0.4"/>
<path d="M18.8799 9.19591C19.0159 8.89591 18.8799 8.54391 18.5839 8.41191C18.2839 8.27991 17.9359 8.41191 17.7999 8.71191C17.3919 9.61591 14.5399 10.5959 10.6399 10.5959C6.73992 10.5959 3.88792 9.61591 3.47592 8.70791C3.33992 8.41191 2.99192 8.27591 2.69192 8.41191C2.39592 8.54791 2.25992 8.89991 2.39592 9.19591C3.19992 10.9719 7.23192 11.7839 10.6399 11.7839C14.0479 11.7839 18.0839 10.9719 18.8799 9.19591Z" fill="white" stroke="white" stroke-width="0.4"/>
<path d="M11.2319 13.4281C11.2319 13.1001 10.9679 12.8361 10.6439 12.8361C6.74392 12.8361 3.89192 11.8561 3.47992 10.9441C3.33992 10.6521 2.99192 10.5161 2.69192 10.6521C2.39592 10.7881 2.25992 11.1361 2.39592 11.4361C3.19992 13.2121 7.23192 14.0241 10.6399 14.0241C10.9679 14.0241 11.2319 13.7561 11.2319 13.4281Z" fill="white" stroke="white" stroke-width="0.4"/>
<path d="M6.95591 15.696C7.24391 15.696 7.49591 15.488 7.53991 15.192C7.59191 14.872 7.36791 14.568 7.04391 14.52C4.55991 14.148 3.60791 13.516 3.45591 13.24C3.29591 12.952 2.93991 12.848 2.65191 13.004C2.36391 13.16 2.25991 13.52 2.41591 13.808C3.01591 14.9 5.16791 15.436 6.86791 15.692C6.89991 15.696 6.92791 15.696 6.95591 15.696Z" fill="white" stroke="white" stroke-width="0.4"/>
<path d="M3.42393 15.376C3.23593 15.108 2.86793 15.04 2.59993 15.228C2.33193 15.416 2.26393 15.78 2.44793 16.052C2.77593 16.524 3.53193 16.9 4.75993 17.196C4.80793 17.208 4.85193 17.212 4.89993 17.212C5.16793 17.212 5.40793 17.032 5.47593 16.76C5.55193 16.44 5.35593 16.12 5.03993 16.044C3.66793 15.712 3.43193 15.392 3.42393 15.376Z" fill="white" stroke="white" stroke-width="0.4"/>
<path d="M18.7319 19.7506C20.0929 19.1861 21.0207 18.305 20.804 17.7826C20.5873 17.2602 19.3083 17.2944 17.9473 17.8589C16.5862 18.4234 15.6585 19.3045 15.8751 19.8269C16.0918 20.3492 17.3708 20.3151 18.7319 19.7506Z" fill="white"/>
</g>
<defs>
<clipPath id="clip0">
<rect width="36" height="36" fill="white"/>
</clipPath>
</defs>
</svg>
