<svg width="24" height="24" viewBox="0 0 24 24" fill="none" xmlns="http://www.w3.org/2000/svg">
<path d="M12 1.49999C9.92331 1.49999 7.89324 2.1158 6.16652 3.26956C4.4398 4.42331 3.09399 6.06319 2.29927 7.98182C1.50455 9.90044 1.29661 12.0116 1.70176 14.0484C2.10691 16.0852 3.10693 17.9562 4.57539 19.4246C6.54452 21.3938 9.21524 22.5 12 22.5C14.7848 22.5 17.4555 21.3938 19.4246 19.4246C21.3938 17.4555 22.5 14.7848 22.5 12C22.5 9.21522 21.3938 6.5445 19.4246 4.57537C18.4519 3.5973 17.2948 2.82188 16.0204 2.29399C14.7459 1.7661 13.3794 1.49623 12 1.49999V1.49999ZM12 2.99999C12.0742 2.99999 12.1467 3.02199 12.2084 3.06319C12.27 3.1044 12.3181 3.16296 12.3465 3.23149C12.3748 3.30001 12.3823 3.37541 12.3678 3.44815C12.3533 3.52089 12.3176 3.58771 12.2652 3.64016C12.2127 3.6926 12.1459 3.72832 12.0732 3.74279C12.0004 3.75726 11.925 3.74983 11.8565 3.72145C11.788 3.69307 11.7294 3.645 11.6882 3.58333C11.647 3.52166 11.625 3.44916 11.625 3.37499C11.625 3.27554 11.6645 3.18015 11.7348 3.10983C11.8052 3.0395 11.9006 2.99999 12 2.99999ZM3.37501 12.375C3.30084 12.375 3.22834 12.353 3.16667 12.3118C3.105 12.2706 3.05694 12.212 3.02856 12.1435C3.00017 12.075 2.99275 11.9996 3.00722 11.9268C3.02169 11.8541 3.0574 11.7873 3.10985 11.7348C3.16229 11.6824 3.22911 11.6467 3.30185 11.6322C3.3746 11.6177 3.45 11.6252 3.51852 11.6535C3.58704 11.6819 3.64561 11.73 3.68681 11.7917C3.72802 11.8533 3.75001 11.9258 3.75001 12C3.75001 12.0994 3.7105 12.1948 3.64018 12.2652C3.56985 12.3355 3.47447 12.375 3.37501 12.375ZM3.87437 10.5648C3.85719 10.6627 3.8018 10.7499 3.72038 10.807C3.63896 10.8641 3.53818 10.8865 3.44022 10.8694C3.34225 10.8522 3.25512 10.7968 3.198 10.7154C3.14088 10.634 3.11844 10.5332 3.13562 10.4352C3.45809 8.61726 4.33115 6.94223 5.6367 5.63668C6.94225 4.33113 8.61728 3.45807 10.4352 3.1356C10.5332 3.11842 10.634 3.14086 10.7154 3.19798C10.7968 3.25511 10.8522 3.34223 10.8694 3.4402C10.8866 3.53816 10.8641 3.63894 10.807 3.72036C10.7499 3.80178 10.6628 3.85717 10.5648 3.87435C8.89856 4.1699 7.3633 4.97009 6.16671 6.16669C4.97011 7.36328 4.16992 8.89854 3.87437 10.5648V10.5648ZM12 21C11.9258 21 11.8533 20.978 11.7917 20.9368C11.73 20.8956 11.6819 20.837 11.6536 20.7685C11.6252 20.7 11.6177 20.6246 11.6322 20.5518C11.6467 20.4791 11.6824 20.4123 11.7348 20.3598C11.7873 20.3074 11.8541 20.2717 11.9269 20.2572C11.9996 20.2427 12.075 20.2502 12.1435 20.2785C12.212 20.3069 12.2706 20.355 12.3118 20.4167C12.353 20.4783 12.375 20.5508 12.375 20.625C12.375 20.7244 12.3355 20.8198 12.2652 20.8902C12.1949 20.9605 12.0995 21 12 21ZM9.37501 13.125V15.75C9.37501 15.8494 9.3355 15.9448 9.26518 16.0152C9.19485 16.0855 9.09947 16.125 9.00001 16.125C8.90056 16.125 8.80517 16.0855 8.73485 16.0152C8.66452 15.9448 8.62501 15.8494 8.62501 15.75V13.125H7.12501C7.02556 13.125 6.93017 13.0855 6.85985 13.0152C6.78952 12.9448 6.75001 12.8494 6.75001 12.75C6.75001 12.6505 6.78952 12.5552 6.85985 12.4848C6.93017 12.4145 7.02556 12.375 7.12501 12.375H8.62501V11.625H7.12501C7.02556 11.625 6.93017 11.5855 6.85985 11.5152C6.78952 11.4448 6.75001 11.3494 6.75001 11.25C6.75001 11.1505 6.78952 11.0552 6.85985 10.9848C6.93017 10.9145 7.02556 10.875 7.12501 10.875H8.62501V8.24999C8.62499 8.17228 8.64911 8.09647 8.69404 8.03306C8.73898 7.96965 8.8025 7.92177 8.87583 7.89603C8.94916 7.8703 9.02868 7.86798 9.10338 7.8894C9.17809 7.91083 9.24429 7.95493 9.29284 8.01562L11.5803 10.875H14.625V8.24999C14.625 8.15054 14.6645 8.05515 14.7348 7.98483C14.8052 7.9145 14.9006 7.87499 15 7.87499C15.0995 7.87499 15.1949 7.9145 15.2652 7.98483C15.3355 8.05515 15.375 8.15054 15.375 8.24999V10.875H16.875C16.9745 10.875 17.0699 10.9145 17.1402 10.9848C17.2105 11.0552 17.25 11.1505 17.25 11.25C17.25 11.3494 17.2105 11.4448 17.1402 11.5152C17.0699 11.5855 16.9745 11.625 16.875 11.625H15.375V12.375H16.875C16.9745 12.375 17.0699 12.4145 17.1402 12.4848C17.2105 12.5552 17.25 12.6505 17.25 12.75C17.25 12.8494 17.2105 12.9448 17.1402 13.0152C17.0699 13.0855 16.9745 13.125 16.875 13.125H15.375V15.75C15.375 15.8277 15.3509 15.9035 15.306 15.9669C15.261 16.0303 15.1975 16.0782 15.1242 16.104C15.0509 16.1297 14.9713 16.132 14.8966 16.1106C14.8219 16.0892 14.7557 16.0451 14.7072 15.9844L12.4197 13.125H9.37501ZM20.625 11.625C20.6992 11.625 20.7717 11.647 20.8334 11.6882C20.895 11.7294 20.9431 11.788 20.9715 11.8565C20.9998 11.925 21.0073 12.0004 20.9928 12.0732C20.9783 12.1459 20.9426 12.2127 20.8902 12.2652C20.8377 12.3176 20.7709 12.3533 20.6982 12.3678C20.6254 12.3823 20.55 12.3748 20.4815 12.3464C20.413 12.3181 20.3544 12.27 20.3132 12.2083C20.272 12.1467 20.25 12.0742 20.25 12C20.25 11.9005 20.2895 11.8052 20.3598 11.7348C20.4302 11.6645 20.5256 11.625 20.625 11.625ZM20.5598 13.1306C20.6083 13.1391 20.6547 13.1571 20.6963 13.1835C20.7378 13.2099 20.7738 13.2443 20.8021 13.2846C20.8304 13.3249 20.8505 13.3704 20.8612 13.4185C20.8719 13.4665 20.873 13.5163 20.8645 13.5648C20.542 15.3827 19.6689 17.0578 18.3634 18.3633C17.0578 19.6689 15.3828 20.5419 13.5648 20.8644C13.4668 20.8816 13.3661 20.8591 13.2846 20.802C13.2032 20.7449 13.1478 20.6578 13.1306 20.5598C13.1135 20.4618 13.1359 20.361 13.193 20.2796C13.2501 20.1982 13.3373 20.1428 13.4352 20.1256C15.1015 19.8301 16.6367 19.0299 17.8333 17.8333C19.0299 16.6367 19.8301 15.1014 20.1257 13.4352C20.1429 13.3373 20.1983 13.2501 20.2797 13.193C20.3611 13.1359 20.4619 13.1134 20.5598 13.1306Z" fill="#B11E1E"/>
<path d="M12.7807 12.375H14.6254V11.625H12.1807L12.7807 12.375Z" fill="#B11E1E"/>
<path d="M9.375 11.625V12.375H11.8198L11.2198 11.625H9.375Z" fill="#B11E1E"/>
<path d="M9.375 9.31903V10.875H10.6198L9.375 9.31903Z" fill="#B11E1E"/>
<path d="M14.6246 14.681V13.125H13.3799L14.6246 14.681Z" fill="#B11E1E"/>
</svg>
