<svg width="91" height="79" viewBox="0 0 91 79" fill="none" xmlns="http://www.w3.org/2000/svg">
<path d="M91 78.1877C91 78.4122 90.9289 78.5868 90.84 78.7365C90.7334 78.8862 90.609 78.961 90.449 78.961H0.550977C0.248828 78.961 0 78.6118 0 78.1877C0 77.9632 0.0710937 77.7885 0.159961 77.6388C0.266602 77.4891 0.391016 77.4143 0.550977 77.4143H90.449C90.7512 77.4143 91 77.7636 91 78.1877Z" fill="#9CA3AF"/>
<path d="M84.478 13.3019V69.4487C84.478 70.9696 83.2406 72.207 81.7196 72.207H20.9327C19.4117 72.207 18.1743 70.9696 18.1743 69.4487V13.3019H84.478Z" fill="#DDE3EA"/>
<path d="M84.4781 13.3019C84.2977 31.0895 80.8175 49.341 74.0118 67.1544C73.7282 67.9019 73.0064 68.3917 72.2073 68.3917H10.054C8.71351 68.3917 7.75969 67.0512 8.24949 65.7881C14.72 48.413 18.0197 30.6512 18.1744 13.3277H84.4781V13.3019Z" fill="#F0F4F9"/>
<path d="M84.478 5.54238V13.3019H18.1743V4.51122C18.1743 3.55739 18.9477 2.75824 19.9273 2.75824H81.7196C83.2406 2.78402 84.478 4.02141 84.478 5.54238Z" fill="url(#paint0_linear_230_3740)"/>
<path d="M29.6201 10.6986C31.0865 10.6986 32.2753 9.50981 32.2753 8.04336C32.2753 6.57691 31.0865 5.38812 29.6201 5.38812C28.1536 5.38812 26.9648 6.57691 26.9648 8.04336C26.9648 9.50981 28.1536 10.6986 29.6201 10.6986Z" fill="#991B1B"/>
<path d="M69.9384 10.6986C71.4049 10.6986 72.5937 9.50981 72.5937 8.04336C72.5937 6.57691 71.4049 5.38812 69.9384 5.38812C68.472 5.38812 67.2832 6.57691 67.2832 8.04336C67.2832 9.50981 68.472 10.6986 69.9384 10.6986Z" fill="#991B1B"/>
<path d="M31.0381 1.44363V7.60482C31.0381 8.40397 30.3937 9.04844 29.5945 9.04844C28.7954 9.04844 28.1509 8.40397 28.1509 7.60482V1.44363C28.1509 0.644477 28.7954 0 29.5945 0C29.9812 0 30.3421 0.154676 30.5999 0.412466C30.8835 0.696036 31.0381 1.05694 31.0381 1.44363ZM71.3565 1.44363V7.60482C71.3565 8.40397 70.7121 9.04844 69.9129 9.04844C69.1138 9.04844 68.4693 8.40397 68.4693 7.60482V1.44363C68.4693 0.644477 69.1138 0 69.9129 0C70.2996 0 70.6605 0.154676 70.9183 0.412466C71.2019 0.696036 71.3565 1.05694 71.3565 1.44363Z" fill="#C8E1FF"/>
<path d="M30.108 56.3635H43.5699L44.1649 52.8205H36.7857L36.8123 52.705L39.3165 50.6982C43.8363 47.2528 45.1505 45.5123 45.5057 43.4256C46.0563 40.1489 43.7475 37.9289 39.6184 37.9289C35.5958 37.9289 32.5145 40.2377 31.8929 43.9495H36.0664C36.3328 42.3156 37.5227 41.3566 39.0412 41.3566C40.5152 41.3566 41.4299 42.2623 41.1812 43.7719C40.9592 45.1216 39.9558 46.0451 38.2331 47.3949L30.632 53.2023L30.108 56.3635ZM45.9386 53.3444H54.7297L54.2235 56.3635H58.4237L58.9209 53.3444H61.0965L61.6737 49.8812H59.4981L61.4428 38.1776H55.9107L46.5069 49.9168L45.9386 53.3444ZM55.3956 49.8812H50.8758L50.9113 49.7392L56.4168 42.8306H56.5589L55.3956 49.8812Z" fill="url(#paint1_linear_230_3740)"/>
<path d="M33.1517 28.2799C33.1001 28.2283 33.1001 28.1768 33.1001 28.0994L33.6672 21.5258C33.6672 21.4484 33.693 21.3969 33.7446 21.3453C33.7961 21.2938 33.8477 21.268 33.925 21.268H36.6318C37.4568 21.268 38.0755 21.4484 38.5137 21.8351C38.9519 22.2218 39.1324 22.789 39.0808 23.5108C39.0293 24.2326 38.7457 24.7997 38.2301 25.1606C37.7403 25.5215 37.0701 25.7278 36.2709 25.7278H34.7757L34.5695 28.0994C34.5695 28.1768 34.5437 28.2283 34.4922 28.2799C34.4406 28.3314 34.3891 28.3572 34.3117 28.3572H33.3321C33.229 28.3572 33.1774 28.3314 33.1517 28.2799ZM36.2967 24.6193C36.6834 24.6193 36.9927 24.5162 37.2247 24.3357C37.4568 24.1552 37.5599 23.8717 37.6114 23.5108C37.6372 23.1499 37.5599 22.8921 37.3794 22.6858C37.199 22.4796 36.9154 22.4023 36.5029 22.4023H35.0335L34.8531 24.5935H36.2967V24.6193ZM40.112 28.2541C39.8284 28.1252 39.6222 27.919 39.4933 27.687C39.3386 27.455 39.2871 27.1972 39.3128 26.9136C39.3644 26.4496 39.5706 26.0887 39.9573 25.8051C40.344 25.5215 40.8854 25.3411 41.5298 25.238L42.9219 25.0317L42.9477 24.8255C42.9735 24.5419 42.9219 24.3099 42.793 24.181C42.6641 24.0264 42.4321 23.949 42.097 23.949C41.865 23.949 41.6845 24.0006 41.5556 24.0779C41.4009 24.1552 41.2978 24.2326 41.1947 24.3357C41.0916 24.413 41.04 24.4646 41.0143 24.4904C40.9885 24.5677 40.9369 24.6193 40.8596 24.6193H40.0604C40.0089 24.6193 39.9573 24.5935 39.9058 24.5677C39.8542 24.5162 39.8542 24.4646 39.8542 24.413C39.88 24.2326 39.9831 24.0521 40.1378 23.8459C40.3182 23.6397 40.576 23.4592 40.9111 23.2788C41.2463 23.1241 41.6587 23.0468 42.1485 23.0468C42.9477 23.0468 43.5148 23.2272 43.85 23.5881C44.1851 23.949 44.314 24.413 44.2882 24.9802L44.0304 28.151C44.0304 28.2283 44.0046 28.2799 43.9531 28.3315C43.9015 28.383 43.85 28.4088 43.7726 28.4088H42.9219C42.8446 28.4088 42.793 28.383 42.7672 28.3315C42.7157 28.2799 42.7157 28.2283 42.7157 28.151L42.7415 27.7643C42.5868 27.9705 42.3548 28.151 42.0712 28.3057C41.7876 28.4603 41.4525 28.5119 41.04 28.5119C40.6791 28.4603 40.3698 28.383 40.112 28.2541ZM42.4063 27.1198C42.6641 26.8878 42.8188 26.5269 42.8446 26.0629L42.8704 25.8567L41.8392 26.0113C41.04 26.1402 40.6534 26.398 40.6018 26.7847C40.576 26.9909 40.6534 27.1714 40.8338 27.2745C41.0143 27.4034 41.2205 27.455 41.4525 27.455C41.8392 27.4807 42.1485 27.3518 42.4063 27.1198ZM45.8092 30.2133C45.7576 30.1618 45.7576 30.136 45.7576 30.0844C45.7576 30.0329 45.7834 29.9813 45.8092 29.9298L46.763 28.0737L45.2162 23.5108C45.1905 23.4592 45.1905 23.4077 45.1905 23.3819C45.1905 23.3303 45.242 23.2788 45.2678 23.2272C45.3194 23.1756 45.3709 23.1499 45.4225 23.1499H46.2732C46.4021 23.1499 46.4794 23.2014 46.531 23.3303L47.5879 26.63L49.2378 23.3303C49.3151 23.2014 49.4182 23.1499 49.5471 23.1499H50.3721C50.4236 23.1499 50.4752 23.1756 50.5267 23.2014C50.5525 23.253 50.5783 23.2788 50.5783 23.3303C50.5783 23.3819 50.5525 23.4334 50.5267 23.485L47.0981 30.1102C47.0208 30.2391 46.9434 30.2907 46.7888 30.2907H45.9896C45.8865 30.2649 45.8349 30.2391 45.8092 30.2133ZM51.2228 27.7901C50.8876 27.3518 50.7587 26.7847 50.7845 26.0371L50.8103 25.702L50.8361 25.3669C50.9134 24.6451 51.1712 24.0779 51.5837 23.6397C51.9961 23.2014 52.5375 22.9694 53.2077 22.9694C53.8522 22.9694 54.342 23.2014 54.7029 23.6397L54.8834 21.3969C54.8834 21.3196 54.9092 21.268 54.9607 21.2164C55.0123 21.1649 55.0638 21.1391 55.1412 21.1391H56.0177C56.095 21.1391 56.1466 21.1649 56.1981 21.2164C56.2497 21.268 56.2497 21.3196 56.2497 21.3969L55.6825 28.0737C55.6825 28.151 55.6568 28.2026 55.6052 28.2541C55.5536 28.3057 55.5021 28.3315 55.4247 28.3315H54.5998C54.5225 28.3315 54.4709 28.3057 54.4451 28.2541C54.3936 28.2026 54.3936 28.151 54.3936 28.0737L54.4194 27.7128C54.0069 28.2026 53.4398 28.4346 52.7437 28.4346C52.0477 28.4603 51.5579 28.2283 51.2228 27.7901ZM54.11 26.9909C54.3162 26.7331 54.4451 26.4496 54.4967 26.0887C54.5225 26.0113 54.5225 25.8824 54.5483 25.702C54.574 25.5215 54.574 25.3926 54.574 25.3153C54.5998 24.9802 54.4967 24.6966 54.342 24.4646C54.1616 24.2326 53.9038 24.1037 53.5171 24.1037C52.7953 24.1037 52.3828 24.5419 52.2539 25.4442L52.2281 25.7535L52.2024 26.0629C52.1766 26.9394 52.5117 27.4034 53.2335 27.4034C53.5944 27.3518 53.9038 27.2487 54.11 26.9909ZM57.5902 28.2541C57.3066 28.1252 57.1004 27.919 56.9715 27.687C56.8168 27.455 56.7653 27.1972 56.791 26.9136C56.8426 26.4496 57.0488 26.0887 57.4355 25.8051C57.8222 25.5215 58.3636 25.3411 59.008 25.238L60.4001 25.0317L60.4259 24.8255C60.4517 24.5419 60.4001 24.3099 60.2712 24.181C60.1423 24.0264 59.9103 23.949 59.5752 23.949C59.3432 23.949 59.1627 24.0006 59.0338 24.0779C58.8791 24.1552 58.776 24.2326 58.6729 24.3357C58.5698 24.413 58.5182 24.4646 58.4924 24.4904C58.4667 24.5677 58.4151 24.6193 58.3378 24.6193H57.5386C57.4871 24.6193 57.4355 24.5935 57.384 24.5677C57.3324 24.5162 57.3324 24.4646 57.3324 24.413C57.3582 24.2326 57.4613 24.0521 57.616 23.8459C57.7964 23.6397 58.0542 23.4592 58.3893 23.2788C58.7245 23.1241 59.1369 23.0468 59.6267 23.0468C60.4259 23.0468 60.993 23.2272 61.3281 23.5881C61.6633 23.949 61.7922 24.413 61.7664 24.9802L61.5086 28.151C61.5086 28.2283 61.4828 28.2799 61.4313 28.3315C61.3797 28.383 61.3281 28.4088 61.2508 28.4088H60.4001C60.3228 28.4088 60.2712 28.383 60.2454 28.3315C60.1939 28.2799 60.1939 28.2283 60.1939 28.151L60.2196 27.7643C60.065 27.9705 59.833 28.151 59.5494 28.3057C59.2658 28.4603 58.9307 28.5119 58.5182 28.5119C58.1831 28.4603 57.8738 28.383 57.5902 28.2541ZM59.8845 27.1198C60.1423 26.8878 60.297 26.5269 60.3228 26.0629L60.3485 25.8567L59.3174 26.0113C58.5182 26.1402 58.1315 26.398 58.08 26.7847C58.0542 26.9909 58.1315 27.1714 58.312 27.2745C58.4925 27.4034 58.6987 27.455 58.9307 27.455C59.3174 27.4807 59.6525 27.3518 59.8845 27.1198ZM63.3131 30.2133C63.2616 30.1618 63.2616 30.136 63.2616 30.0844C63.2616 30.0329 63.2874 29.9813 63.3131 29.9298L64.267 28.0737L62.7202 23.5108C62.6944 23.4592 62.6944 23.4077 62.6944 23.3819C62.6944 23.3303 62.746 23.2788 62.7718 23.2272C62.8233 23.1756 62.8749 23.1499 62.9264 23.1499H63.7771C63.906 23.1499 63.9834 23.2014 64.0349 23.3303L65.0919 26.63L66.7417 23.3303C66.8191 23.2014 66.9222 23.1499 67.0511 23.1499H67.876C67.9276 23.1499 67.9791 23.1756 68.0307 23.2014C68.0565 23.253 68.0823 23.2788 68.0823 23.3303C68.0823 23.3819 68.0565 23.4334 68.0307 23.485L64.6021 30.1102C64.5247 30.2391 64.4474 30.2907 64.2927 30.2907H63.4936C63.3905 30.2649 63.3389 30.2391 63.3131 30.2133Z" fill="#5B6F8B"/>
<path d="M66.252 77.4143H76.873C79.786 75.9707 81.7194 73.367 81.7194 70.4024C81.7194 65.8653 77.1566 57.5387 71.5367 57.5387C65.9169 57.5387 61.354 65.8653 61.354 70.4024C61.4056 73.367 63.339 75.9707 66.252 77.4143Z" fill="#48DBC5"/>
<path d="M74.7336 57.4357C74.7336 57.642 74.6563 57.8482 74.5016 57.9771C74.3727 58.106 74.1665 58.2091 73.9603 58.2091H69.1396C68.7271 58.2091 68.3662 57.874 68.3662 57.4357C68.3662 57.2295 68.4435 57.0233 68.5982 56.8944C68.7271 56.7655 68.9333 56.6624 69.1396 56.6624H73.986C74.3985 56.6624 74.7336 57.0233 74.7336 57.4357Z" fill="#FF9A05"/>
<path d="M76.4608 51.4291L74.0376 56.6622H69.3458L66.7937 51.094C66.7163 50.8877 66.8968 50.6815 67.103 50.7588C67.4124 50.8877 67.7217 51.0424 67.9795 51.2229C68.4177 51.5064 68.9591 51.7127 69.4231 51.5322C69.8614 51.3775 70.1192 50.9393 70.4801 50.6042C70.609 50.501 70.7121 50.3979 70.8668 50.3464C71.3566 50.1401 71.9237 50.3206 72.3877 50.6042C72.4393 50.6299 72.4908 50.6815 72.5424 50.7073C73.0322 51.0424 73.4962 51.4806 74.0891 51.6095C74.5789 51.7127 75.1203 51.5838 75.5585 51.3517C75.739 51.2486 75.9194 51.1713 76.0741 51.0682C76.3319 51.0166 76.5639 51.2229 76.4608 51.4291Z" fill="#2AB19F"/>
<path d="M71.0985 71.6914C71.047 71.6399 71.0212 71.5883 71.0212 71.5368V70.8665C70.5572 70.815 70.1705 70.7118 69.8354 70.5314C69.5002 70.3509 69.2682 70.1447 69.0878 69.8869C68.9073 69.6291 68.83 69.3456 68.8042 69.062C68.8042 69.0104 68.83 68.9589 68.8558 68.9331C68.9073 68.8815 68.9589 68.8815 69.0104 68.8815H69.8611C69.9385 68.8815 69.99 68.9073 70.0416 68.9331C70.0932 68.9589 70.1189 69.0104 70.1705 69.062C70.2478 69.2682 70.3767 69.4487 70.6087 69.6033C70.8407 69.758 71.1501 69.8354 71.5368 69.8354C71.975 69.8354 72.3101 69.758 72.5422 69.6033C72.7742 69.4487 72.8773 69.2424 72.8773 68.9846C72.8773 68.8042 72.8257 68.6753 72.6968 68.5464C72.5937 68.4433 72.4133 68.3402 72.1813 68.2371C71.9492 68.1597 71.6141 68.0566 71.1501 67.9277C70.4025 67.7473 69.8354 67.5152 69.5002 67.2317C69.1393 66.9481 68.9847 66.5099 68.9847 65.9685C68.9847 65.4787 69.1651 65.0405 69.526 64.7053C69.8869 64.3702 70.3767 64.164 70.9954 64.0866V63.4164C70.9954 63.339 71.0212 63.2875 71.0728 63.2617C71.1243 63.2101 71.1759 63.2101 71.2274 63.2101H71.8203C71.8977 63.2101 71.9492 63.2359 71.975 63.2617C72.0266 63.3133 72.0266 63.3648 72.0266 63.4164V64.0866C72.439 64.1382 72.8 64.2671 73.0835 64.4475C73.3671 64.628 73.5991 64.86 73.7538 65.092C73.9085 65.3498 73.9858 65.5818 74.0116 65.8138C74.0116 65.8654 73.9858 65.9169 73.96 65.9685C73.9342 65.9943 73.8827 66.0201 73.8053 66.0201H72.9031C72.7742 66.0201 72.6711 65.9685 72.6195 65.8396C72.5937 65.6334 72.4648 65.4787 72.2328 65.324C72.0266 65.1951 71.743 65.1178 71.4337 65.1178C71.0728 65.1178 70.815 65.1951 70.6087 65.324C70.4025 65.4529 70.2994 65.6592 70.2994 65.9169C70.2994 66.0974 70.3509 66.2263 70.4541 66.3552C70.5572 66.4583 70.7119 66.5614 70.9439 66.6645C71.1759 66.7419 71.4852 66.845 71.8977 66.9481C72.4648 67.077 72.9289 67.2059 73.264 67.3864C73.5991 67.541 73.8569 67.7473 74.0116 67.9793C74.1662 68.2113 74.2436 68.5206 74.2436 68.9073C74.2436 69.4487 74.0373 69.9127 73.6507 70.2478C73.264 70.583 72.7226 70.7892 72.0266 70.8665V71.5368C72.0266 71.6141 72.0008 71.6657 71.975 71.6914C71.9235 71.743 71.8719 71.743 71.8203 71.743H71.2274C71.2016 71.7688 71.1501 71.743 71.0985 71.6914Z" fill="white"/>
<path d="M60.668 68.852V72.1768C60.668 72.5959 61.0032 72.9312 61.4223 72.9312H78.745C79.1641 72.9312 79.4994 72.5959 79.4994 72.1768V68.852C79.4994 68.4329 79.1641 68.0976 78.745 68.0976H61.4223C61.0032 68.0696 60.668 68.4329 60.668 68.852Z" fill="#FCC800"/>
<path d="M63.1548 69.1595V71.8697C63.1548 71.9535 63.2386 72.0373 63.3224 72.0373H63.9371C64.0209 72.0373 64.1047 71.9535 64.1047 71.8697V69.1595C64.1047 69.0757 64.0209 68.9919 63.9371 68.9919H63.3224C63.2386 68.9919 63.1548 69.0478 63.1548 69.1595ZM65.7252 69.1595V71.8697C65.7252 71.9535 65.8091 72.0373 65.8929 72.0373H66.5076C66.5914 72.0373 66.6752 71.9535 66.6752 71.8697V69.1595C66.6752 69.0757 66.5914 68.9919 66.5076 68.9919H65.8929C65.8091 68.9919 65.7252 69.0478 65.7252 69.1595ZM68.3236 69.1595V71.8697C68.3236 71.9535 68.4075 72.0373 68.4913 72.0373H69.106C69.1898 72.0373 69.2736 71.9535 69.2736 71.8697V69.1595C69.2736 69.0757 69.1898 68.9919 69.106 68.9919H68.4913C68.3795 68.9919 68.3236 69.0478 68.3236 69.1595ZM70.8941 69.1595V71.8697C70.8941 71.9535 70.9779 72.0373 71.0617 72.0373H71.6764C71.7602 72.0373 71.844 71.9535 71.844 71.8697V69.1595C71.844 69.0757 71.7602 68.9919 71.6764 68.9919H71.0617C70.9779 68.9919 70.8941 69.0478 70.8941 69.1595ZM73.4646 69.1595V71.8697C73.4646 71.9535 73.5484 72.0373 73.6322 72.0373H74.2469C74.3307 72.0373 74.4145 71.9535 74.4145 71.8697V69.1595C74.4145 69.0757 74.3307 68.9919 74.2469 68.9919H73.6322C73.5484 68.9919 73.4646 69.0478 73.4646 69.1595ZM76.0629 69.1595V71.8697C76.0629 71.9535 76.1468 72.0373 76.2306 72.0373H76.8453C76.9291 72.0373 77.0129 71.9535 77.0129 71.8697V69.1595C77.0129 69.0757 76.9291 68.9919 76.8453 68.9919H76.2306C76.1468 68.9919 76.0629 69.0478 76.0629 69.1595Z" fill="#E3B400"/>
<path d="M57.2036 63.9904V67.3152C57.2036 67.7343 57.5389 68.0696 57.958 68.0696H75.2806C75.6997 68.0696 76.035 67.7343 76.035 67.3152V63.9904C76.035 63.5713 75.6997 63.236 75.2806 63.236H57.958C57.5389 63.236 57.2036 63.5713 57.2036 63.9904Z" fill="#FCC800"/>
<path d="M59.6904 64.2979V67.008C59.6904 67.0919 59.7743 67.1757 59.8581 67.1757H60.4727C60.5566 67.1757 60.6404 67.0919 60.6404 67.008V64.2979C60.6404 64.2141 60.5566 64.1302 60.4727 64.1302H59.8581C59.7743 64.1302 59.6904 64.2141 59.6904 64.2979ZM62.2609 64.2979V67.008C62.2609 67.0919 62.3447 67.1757 62.4285 67.1757H63.0432C63.127 67.1757 63.2108 67.0919 63.2108 67.008V64.2979C63.2108 64.2141 63.127 64.1302 63.0432 64.1302H62.4285C62.3447 64.1302 62.2609 64.2141 62.2609 64.2979ZM64.8593 64.2979V67.008C64.8593 67.0919 64.9431 67.1757 65.0269 67.1757H65.6416C65.7254 67.1757 65.8092 67.0919 65.8092 67.008V64.2979C65.8092 64.2141 65.7254 64.1302 65.6416 64.1302H65.0269C64.9431 64.1302 64.8593 64.2141 64.8593 64.2979ZM67.4297 64.2979V67.008C67.4297 67.0919 67.5136 67.1757 67.5974 67.1757H68.2121C68.2959 67.1757 68.3797 67.0919 68.3797 67.008V64.2979C68.3797 64.2141 68.2959 64.1302 68.2121 64.1302H67.5974C67.5136 64.1302 67.4297 64.2141 67.4297 64.2979ZM70.0281 64.2979V67.008C70.0281 67.0919 70.112 67.1757 70.1958 67.1757H70.8105C70.8943 67.1757 70.9781 67.0919 70.9781 67.008V64.2979C70.9781 64.2141 70.8943 64.1302 70.8105 64.1302H70.1958C70.084 64.1302 70.0281 64.2141 70.0281 64.2979ZM72.5986 64.2979V67.008C72.5986 67.0919 72.6824 67.1757 72.7662 67.1757H73.3809C73.4647 67.1757 73.5486 67.0919 73.5486 67.008V64.2979C73.5486 64.2141 73.4647 64.1302 73.3809 64.1302H72.7662C72.6824 64.1302 72.5986 64.2141 72.5986 64.2979Z" fill="#E3B400"/>
<path d="M57.2036 73.4898V76.8146C57.2036 77.2337 57.5389 77.569 57.958 77.569H75.2806C75.6997 77.569 76.035 77.2337 76.035 76.8146V73.4898C76.035 73.0707 75.6997 72.7354 75.2806 72.7354H57.958C57.5389 72.7354 57.2036 73.0707 57.2036 73.4898Z" fill="#FCC800"/>
<path d="M59.6904 73.7974V76.5076C59.6904 76.5914 59.7743 76.6752 59.8581 76.6752H60.4727C60.5566 76.6752 60.6404 76.5914 60.6404 76.5076V73.7974C60.6404 73.7136 60.5566 73.6298 60.4727 73.6298H59.8581C59.7743 73.6298 59.6904 73.7136 59.6904 73.7974ZM62.2609 73.7974V76.5076C62.2609 76.5914 62.3447 76.6752 62.4285 76.6752H63.0432C63.127 76.6752 63.2108 76.5914 63.2108 76.5076V73.7974C63.2108 73.7136 63.127 73.6298 63.0432 73.6298H62.4285C62.3447 73.6298 62.2609 73.7136 62.2609 73.7974ZM64.8593 73.7974V76.5076C64.8593 76.5914 64.9431 76.6752 65.0269 76.6752H65.6416C65.7254 76.6752 65.8092 76.5914 65.8092 76.5076V73.7974C65.8092 73.7136 65.7254 73.6298 65.6416 73.6298H65.0269C64.9431 73.6298 64.8593 73.7136 64.8593 73.7974ZM67.4297 73.7974V76.5076C67.4297 76.5914 67.5136 76.6752 67.5974 76.6752H68.2121C68.2959 76.6752 68.3797 76.5914 68.3797 76.5076V73.7974C68.3797 73.7136 68.2959 73.6298 68.2121 73.6298H67.5974C67.5136 73.6298 67.4297 73.7136 67.4297 73.7974ZM70.0281 73.7974V76.5076C70.0281 76.5914 70.112 76.6752 70.1958 76.6752H70.8105C70.8943 76.6752 70.9781 76.5914 70.9781 76.5076V73.7974C70.9781 73.7136 70.8943 73.6298 70.8105 73.6298H70.1958C70.084 73.6298 70.0281 73.7136 70.0281 73.7974ZM72.5986 73.7974V76.5076C72.5986 76.5914 72.6824 76.6752 72.7662 76.6752H73.3809C73.4647 76.6752 73.5486 76.5914 73.5486 76.5076V73.7974C73.5486 73.7136 73.4647 73.6298 73.3809 73.6298H72.7662C72.6824 73.6298 72.5986 73.7136 72.5986 73.7974Z" fill="#E3B400"/>
<defs>
<linearGradient id="paint0_linear_230_3740" x1="51.3262" y1="2.75824" x2="51.3262" y2="13.3019" gradientUnits="userSpaceOnUse">
<stop stop-color="#D70900"/>
<stop offset="1" stop-color="#BF0B1C"/>
</linearGradient>
<linearGradient id="paint1_linear_230_3740" x1="46.4024" y1="34.3635" x2="46.4024" y2="59.3692" gradientUnits="userSpaceOnUse">
<stop stop-color="#D70900"/>
<stop offset="1" stop-color="#BF0B1C"/>
</linearGradient>
</defs>
</svg>
